<svg width="165" height="46" viewBox="0 0 165 46" fill="none" xmlns="http://www.w3.org/2000/svg">
<g id="coco_logo">
<g id="Group">
<g id="Group_2">
<g id="Group_3">
<path id="Vector" d="M56.1707 25.0824C56.8353 25.0824 57.4798 24.9876 58.1072 24.7926C58.7403 24.592 59.2072 24.3998 59.5051 24.2132L59.9405 23.9234L61.8082 27.545C61.7452 27.5896 61.6593 27.6509 61.5447 27.7233C61.4358 27.7986 61.1837 27.9406 60.7884 28.1468C60.3988 28.3474 59.9778 28.5257 59.528 28.6817C59.0754 28.8321 58.4853 28.963 57.752 29.0828C57.0244 29.1998 56.2738 29.2611 55.4947 29.2611C53.7072 29.2611 52.0142 28.8377 50.4186 27.9908C48.8202 27.1383 47.534 25.9627 46.5572 24.4695C45.5775 22.9762 45.0905 21.3605 45.0905 19.6221C45.0905 18.3072 45.377 17.048 45.9499 15.8445C46.5228 14.6354 47.2848 13.5991 48.2416 12.7355C49.1955 11.8746 50.3069 11.1865 51.5759 10.6739C52.8507 10.1613 54.1569 9.90503 55.4947 9.90503C56.7379 9.90503 57.8837 10.0499 58.9322 10.3396C59.9778 10.6238 60.7197 10.9079 61.1551 11.1977L61.8082 11.6323L59.9405 15.2539C59.8317 15.1591 59.6684 15.0477 59.4478 14.9196C59.233 14.7942 58.7975 14.627 58.1416 14.4181C57.4913 14.2036 56.8353 14.095 56.1707 14.095C55.1166 14.095 54.1684 14.2621 53.3291 14.5964C52.4869 14.9251 51.8223 15.3625 51.3353 15.9113C50.8455 16.4546 50.4702 17.0368 50.2124 17.6608C49.9603 18.2849 49.8343 18.9256 49.8343 19.5775C49.8343 20.9983 50.3785 22.2714 51.4728 23.3997C52.5728 24.5224 54.1369 25.0824 56.1707 25.0824Z" fill="white"/>
</g>
</g>
</g>
<g id="Group_4">
<g id="Group_5">
<g id="Group_6">
<path id="Vector_2" d="M62.6207 19.5775C62.6207 16.8752 63.566 14.5853 65.4623 12.7132C67.3558 10.8411 69.636 9.90503 72.303 9.90503C74.9899 9.90503 77.2701 10.8383 79.1436 12.702C81.0227 14.5685 81.9623 16.8585 81.9623 19.5775C81.9623 22.3132 81.0371 24.6115 79.1894 26.4753C77.3475 28.3334 75.053 29.2611 72.303 29.2611C69.4899 29.2611 67.1725 28.3418 65.3477 26.4976C63.5287 24.6478 62.6207 22.3411 62.6207 19.5775ZM67.3415 19.5775C67.3415 20.5581 67.4962 21.4552 67.8113 22.2631C68.1235 23.0654 68.6649 23.7507 69.4384 24.3135C70.2175 24.8706 71.1714 25.1492 72.303 25.1492C73.93 25.1492 75.1589 24.6088 75.9925 23.5223C76.8233 22.4302 77.2415 21.1153 77.2415 19.5775C77.2415 18.0564 76.8175 16.7471 75.9696 15.655C75.1217 14.5574 73.8985 14.0058 72.303 14.0058C70.7217 14.0058 69.4985 14.5574 68.6363 15.655C67.7712 16.7471 67.3415 18.0564 67.3415 19.5775Z" fill="white"/>
</g>
</g>
</g>
<g id="Group_7">
<g id="Group_8">
<g id="Group_9">
<path id="Vector_3" d="M94.1178 25.0824C94.7824 25.0824 95.4269 24.9876 96.0543 24.7926C96.6873 24.592 97.1543 24.3998 97.4522 24.2132L97.8876 23.9234L99.7553 27.545C99.6923 27.5896 99.6063 27.6509 99.4918 27.7233C99.3829 27.7986 99.1308 27.9406 98.7355 28.1468C98.3459 28.3474 97.9248 28.5257 97.4751 28.6817C97.0225 28.8321 96.4324 28.963 95.6991 29.0828C94.9714 29.1998 94.2209 29.2611 93.4418 29.2611C91.6543 29.2611 89.9613 28.8377 88.3657 27.9908C86.7673 27.1383 85.4811 25.9627 84.5043 24.4695C83.5246 22.9762 83.0376 21.3605 83.0376 19.6221C83.0376 18.3072 83.3241 17.048 83.897 15.8445C84.4699 14.6354 85.2319 13.5991 86.1886 12.7355C87.1425 11.8746 88.254 11.1865 89.523 10.6739C90.7978 10.1613 92.104 9.90503 93.4418 9.90503C94.685 9.90503 95.8308 10.0499 96.8793 10.3396C97.9248 10.6238 98.6668 10.9079 99.1022 11.1977L99.7553 11.6323L97.8876 15.2539C97.7787 15.1591 97.6155 15.0477 97.3949 14.9196C97.18 14.7942 96.7446 14.627 96.0886 14.4181C95.4384 14.2036 94.7824 14.095 94.1178 14.095C93.0636 14.095 92.1155 14.2621 91.2761 14.5964C90.4339 14.9251 89.7694 15.3625 89.2824 15.9113C88.7925 16.4546 88.4173 17.0368 88.1595 17.6608C87.9074 18.2849 87.7813 18.9256 87.7813 19.5775C87.7813 20.9983 88.3256 22.2714 89.4199 23.3997C90.5199 24.5224 92.0839 25.0824 94.1178 25.0824Z" fill="white"/>
</g>
</g>
</g>
<g id="Group_10">
<g id="Group_11">
<g id="Group_12">
<path id="Vector_4" d="M100.568 19.5775C100.568 16.8752 101.513 14.5853 103.409 12.7132C105.303 10.8411 107.583 9.90503 110.25 9.90503C112.937 9.90503 115.217 10.8383 117.091 12.702C118.97 14.5685 119.909 16.8585 119.909 19.5775C119.909 22.3132 118.984 24.6115 117.137 26.4753C115.295 28.3334 113 29.2611 110.25 29.2611C107.437 29.2611 105.12 28.3418 103.295 26.4976C101.476 24.6478 100.568 22.3411 100.568 19.5775ZM105.289 19.5775C105.289 20.5581 105.443 21.4552 105.758 22.2631C106.071 23.0654 106.612 23.7507 107.386 24.3135C108.165 24.8706 109.119 25.1492 110.25 25.1492C111.877 25.1492 113.106 24.6088 113.94 23.5223C114.77 22.4302 115.189 21.1153 115.189 19.5775C115.189 18.0564 114.765 16.7471 113.917 15.655C113.069 14.5574 111.846 14.0058 110.25 14.0058C108.669 14.0058 107.446 14.5574 106.583 15.655C105.718 16.7471 105.289 18.0564 105.289 19.5775Z" fill="white"/>
</g>
</g>
</g>
<g id="Group_13">
<g id="Group_14">
<g id="Group_15">
<path id="Vector_5" d="M72.5254 36.9149C72.5484 36.9372 72.5598 36.9595 72.5598 36.9818C72.5598 37.0041 72.5484 37.0375 72.5254 37.0821C72.5025 37.1211 72.4681 37.1712 72.4223 37.2381C72.3765 37.3049 72.2905 37.3996 72.1702 37.5167C72.0556 37.6281 71.9296 37.7256 71.7921 37.8064C71.6546 37.89 71.4713 37.9624 71.2421 38.0292C71.0129 38.0878 70.7666 38.1184 70.5088 38.1184C69.8671 38.1184 69.3314 37.9039 68.9046 37.4721C68.4749 37.0347 68.2629 36.4664 68.2629 35.7671C68.2629 35.0623 68.4749 34.5024 68.9046 34.0845C69.34 33.6694 69.8614 33.4604 70.4744 33.4604C71.1447 33.4604 71.6346 33.6889 71.9411 34.1402V33.5719C71.9325 33.5217 71.9583 33.4939 72.0213 33.4939H72.3879C72.4395 33.4939 72.4681 33.5217 72.4681 33.5719V34.9648C72.4681 35.0177 72.4395 35.0428 72.3879 35.0428H71.9754C71.921 35.0428 71.8952 35.0177 71.8952 34.9648V34.9091C71.8952 34.7085 71.7577 34.5051 71.4827 34.2962C71.2077 34.0901 70.8668 33.9842 70.4629 33.9842C70.0562 33.9842 69.6895 34.1402 69.3629 34.4522C69.0421 34.7642 68.8817 35.2072 68.8817 35.7783C68.8817 36.3522 69.0421 36.7979 69.3629 37.1155C69.6895 37.4275 70.0762 37.5835 70.5202 37.5835C71.0015 37.5835 71.3796 37.4804 71.6546 37.2715C71.8666 37.1099 72.0241 36.9456 72.1244 36.7812C72.153 36.7143 72.196 36.7004 72.2504 36.7366L72.5254 36.9149Z" fill="white"/>
</g>
</g>
</g>
<g id="Group_16">
<g id="Group_17">
<g id="Group_18">
<path id="Vector_6" d="M78.2363 38.0738H76.7582C76.7037 38.0738 76.678 38.0488 76.678 37.9958V37.6727C76.678 37.6225 76.7037 37.5947 76.7582 37.5947H77.2165L76.7925 36.4915H74.9592L74.5353 37.5947H74.9936C75.0452 37.5947 75.0738 37.6225 75.0738 37.6727V37.9958C75.0738 38.0488 75.0452 38.0738 74.9936 38.0738H73.5155C73.4696 38.0738 73.4467 38.0488 73.4467 37.9958V37.6727C73.4467 37.6225 73.4696 37.5947 73.5155 37.5947H73.9623L75.3717 33.9731H75.0165C74.9535 33.9731 74.9248 33.948 74.9248 33.8951V33.5719C74.9248 33.5218 74.9535 33.4939 75.0165 33.4939H75.9103C76.0077 33.4939 76.085 33.5162 76.1394 33.5608C76.1996 33.6053 76.2483 33.6778 76.2884 33.7725L77.7894 37.5947H78.2363C78.2879 37.5947 78.3165 37.6225 78.3165 37.6727V37.9958C78.3165 38.0488 78.2879 38.0738 78.2363 38.0738ZM76.6092 36.0569L75.8873 34.1625H75.8644L75.1311 36.0569H76.6092Z" fill="white"/>
</g>
</g>
</g>
<g id="Group_19">
<g id="Group_20">
<g id="Group_21">
<path id="Vector_7" d="M79.8092 38.0738H79.4425C79.3795 38.0738 79.3508 38.0487 79.3508 37.9958V36.5026C79.3508 36.4525 79.3795 36.4246 79.4425 36.4246H79.855C79.9066 36.4246 79.9352 36.4525 79.9352 36.5026V36.6363C79.9352 36.7199 79.9839 36.8258 80.0842 36.9595C80.1816 37.0932 80.2818 37.2046 80.3821 37.2938C80.4795 37.3774 80.6141 37.4498 80.7831 37.5167C80.9493 37.5779 81.1326 37.6058 81.3331 37.6058C81.6683 37.6058 81.9318 37.5389 82.1237 37.4052C82.3128 37.2659 82.4102 37.0709 82.4102 36.8258C82.4102 36.692 82.3558 36.5778 82.2498 36.4803C82.1409 36.3772 82.0006 36.2964 81.8258 36.2352C81.6568 36.1767 81.4706 36.1209 81.2644 36.068C81.0581 36.0179 80.8519 35.9566 80.6456 35.8897C80.4394 35.8229 80.2474 35.7448 80.0727 35.6557C79.9037 35.5666 79.7662 35.4412 79.6602 35.2768C79.5514 35.1152 79.4998 34.9202 79.4998 34.6974C79.4998 34.3408 79.6373 34.0483 79.9123 33.817C80.193 33.5802 80.5683 33.4604 81.0352 33.4604C81.6224 33.4604 82.055 33.6276 82.33 33.9619L82.3185 33.5719C82.3185 33.5217 82.3443 33.4939 82.3987 33.4939H82.7654C82.817 33.4939 82.8456 33.5217 82.8456 33.5719V34.9537C82.8456 35.0066 82.817 35.0317 82.7654 35.0317H82.3529C82.3071 35.0317 82.2842 35.0066 82.2842 34.9537V34.7754C82.2842 34.6054 82.181 34.4299 81.9748 34.2516C81.7743 34.0733 81.4821 33.9842 81.0925 33.9842C80.8003 33.9842 80.5683 34.0511 80.3935 34.1848C80.2159 34.3185 80.13 34.4912 80.13 34.6974C80.13 34.8478 80.1816 34.9732 80.2904 35.0762C80.405 35.1821 80.5454 35.2657 80.7144 35.3325C80.8891 35.3994 81.081 35.4607 81.2873 35.5108C81.4993 35.5638 81.7112 35.6223 81.9175 35.6891C82.1295 35.7504 82.3243 35.8229 82.5019 35.912C82.6766 36.0011 82.817 36.1237 82.9258 36.2797C83.0318 36.4357 83.0862 36.6196 83.0862 36.8258C83.0862 37.2046 82.9487 37.5167 82.6737 37.7618C82.3987 38.0014 81.9891 38.1184 81.4477 38.1184C81.0409 38.1184 80.7086 38.0404 80.4508 37.8844C80.1902 37.7284 79.9982 37.5584 79.8779 37.3718L79.8894 37.9958C79.8894 38.0487 79.8607 38.0738 79.8092 38.0738Z" fill="white"/>
</g>
</g>
</g>
<g id="Group_22">
<g id="Group_23">
<g id="Group_24">
<path id="Vector_8" d="M85.7016 38.0738H84.1318C84.0687 38.0738 84.0401 38.0488 84.0401 37.9958V37.6727C84.0401 37.6225 84.0687 37.5947 84.1318 37.5947H84.6245V33.9731H84.1318C84.0687 33.9731 84.0401 33.948 84.0401 33.8951V33.5719C84.0401 33.5218 84.0687 33.4939 84.1318 33.4939H85.7016C85.7617 33.4939 85.7932 33.5218 85.7932 33.5719V33.8951C85.7932 33.948 85.7617 33.9731 85.7016 33.9731H85.1974V37.5947H85.7016C85.7617 37.5947 85.7932 37.6225 85.7932 37.6727V37.9958C85.7932 38.0488 85.7617 38.0738 85.7016 38.0738Z" fill="white"/>
</g>
</g>
</g>
<g id="Group_25">
<g id="Group_26">
<g id="Group_27">
<path id="Vector_9" d="M90.8176 38.0738H90.4624C90.3765 38.0738 90.3135 38.0599 90.2676 38.0293C90.2218 37.993 90.176 37.9401 90.1301 37.8733L88.2395 34.9983L87.9072 34.4634H87.8958V37.5947H88.3999C88.4601 37.5947 88.4916 37.6225 88.4916 37.6727V37.9958C88.4916 38.0488 88.4601 38.0738 88.3999 38.0738H86.8301C86.7671 38.0738 86.7385 38.0488 86.7385 37.9958V37.6727C86.7385 37.6225 86.7671 37.5947 86.8301 37.5947H87.3228V33.9731H86.8301C86.7671 33.9731 86.7385 33.948 86.7385 33.8951V33.5719C86.7385 33.5218 86.7671 33.4939 86.8301 33.4939H87.7468C87.8757 33.4939 87.9874 33.5691 88.0791 33.7168L89.9468 36.5583L90.3249 37.1712H90.3364V33.9731H89.8322C89.7778 33.9731 89.752 33.948 89.752 33.8951V33.5719C89.752 33.5218 89.7778 33.4939 89.8322 33.4939H91.4135C91.465 33.4939 91.4937 33.5218 91.4937 33.5719V33.8951C91.4937 33.948 91.465 33.9731 91.4135 33.9731H90.9093V37.9958C90.9093 38.0488 90.8778 38.0738 90.8176 38.0738Z" fill="white"/>
</g>
</g>
</g>
<g id="Group_28">
<g id="Group_29">
<g id="Group_30">
<path id="Vector_10" d="M96.6529 38.0738H96.2977C96.2432 38.0738 96.2175 38.0487 96.2175 37.9958L96.2289 37.5612C95.8393 37.9345 95.3237 38.1184 94.6821 38.1184C94.0461 38.1184 93.5133 37.9039 93.0779 37.4721C92.6482 37.0347 92.4362 36.4636 92.4362 35.756C92.4362 35.288 92.5422 34.8757 92.7571 34.5191C92.9776 34.1625 93.2555 33.9006 93.5935 33.7279C93.9287 33.5496 94.2925 33.4604 94.6821 33.4604C95.3466 33.4604 95.8222 33.661 96.1143 34.0622V33.5719C96.1057 33.5217 96.1315 33.4939 96.1946 33.4939H96.5612C96.6128 33.4939 96.6414 33.5217 96.6414 33.5719V34.8868C96.6414 34.9397 96.6128 34.9648 96.5612 34.9648H96.1487C96.0943 34.9648 96.0685 34.9397 96.0685 34.8868V34.8088C96.0685 34.6249 95.9339 34.4411 95.6675 34.2628C95.4068 34.0789 95.0716 33.9842 94.6591 33.9842C94.2466 33.9842 93.8742 34.1486 93.5477 34.4745C93.2182 34.8032 93.055 35.2434 93.055 35.8006C93.055 36.3522 93.2182 36.7868 93.5477 37.1043C93.8828 37.4247 94.2524 37.5835 94.6591 37.5835C95.0716 37.5835 95.3953 37.5222 95.6331 37.3941C95.868 37.2687 96.0485 37.1155 96.1716 36.9372V36.4469H94.9571C94.9026 36.4469 94.8768 36.419 94.8768 36.3577V36.068C94.8768 36.0179 94.9026 35.99 94.9571 35.99H96.6529C96.7044 35.99 96.7331 36.0179 96.7331 36.068V37.9958C96.7331 38.0487 96.7044 38.0738 96.6529 38.0738Z" fill="white"/>
</g>
</g>
</g>
</g>
</svg>
