<svg width="64" height="64" viewBox="0 0 64 64" fill="none" xmlns="http://www.w3.org/2000/svg">
<g id="refresh">
<path id="Vector" d="M10.6667 10.6666V24H12.2187M12.2187 24C13.989 19.6216 17.1619 15.9544 21.2402 13.5729C25.3184 11.1915 30.0716 10.2304 34.7547 10.8403C39.4378 11.4503 43.7862 13.5968 47.1184 16.9434C50.4506 20.29 52.5783 24.6476 53.1681 29.3333M12.2187 24H24.0001M53.3334 53.3333V40H51.7841M51.7841 40C50.0113 44.3757 46.8375 48.0401 42.7596 50.4194C38.6818 52.7987 33.93 53.7587 29.2483 53.149C24.5666 52.5393 20.2193 50.3943 16.8868 47.0499C13.5544 43.7055 11.425 39.3505 10.8321 34.6666M51.7841 40H40.0001" stroke="#374151" stroke-width="2" stroke-linecap="round" stroke-linejoin="round"/>
</g>
</svg>
