<svg width="64" height="64" viewBox="0 0 64 64" fill="none" xmlns="http://www.w3.org/2000/svg">
<g id="receipt-refund">
<path id="Vector" d="M42.6667 40V37.3333C42.6667 34.5044 41.5429 31.7912 39.5426 29.7909C37.5422 27.7905 34.8291 26.6667 32.0001 26.6667H21.3334M21.3334 26.6667L29.3334 34.6667M21.3334 26.6667L29.3334 18.6667M53.3334 56V13.3333C53.3334 11.9188 52.7715 10.5623 51.7713 9.5621C50.7711 8.5619 49.4146 8 48.0001 8H16.0001C14.5856 8 13.229 8.5619 12.2288 9.5621C11.2287 10.5623 10.6667 11.9188 10.6667 13.3333V56L21.3334 50.6667L32.0001 56L42.6667 50.6667L53.3334 56Z" stroke="#374151" stroke-width="2" stroke-linecap="round" stroke-linejoin="round"/>
</g>
</svg>
