<svg width="64" height="64" viewBox="0 0 64 64" fill="none" xmlns="http://www.w3.org/2000/svg">
<g id="globe">
<path id="Vector" d="M8.14667 29.3333H13.3333C14.7478 29.3333 16.1044 29.8952 17.1046 30.8954C18.1048 31.8956 18.6667 33.2522 18.6667 34.6667V37.3333C18.6667 38.7478 19.2286 40.1044 20.2288 41.1046C21.229 42.1048 22.5855 42.6667 24 42.6667C25.4145 42.6667 26.771 43.2286 27.7712 44.2288C28.7714 45.229 29.3333 46.5855 29.3333 48V55.8533M21.3333 10.4933V14.6667C21.3333 16.4348 22.0357 18.1305 23.286 19.3807C24.5362 20.631 26.2319 21.3333 28 21.3333H29.3333C30.7478 21.3333 32.1044 21.8952 33.1046 22.8954C34.1048 23.8956 34.6667 25.2522 34.6667 26.6667C34.6667 28.0812 35.2286 29.4377 36.2288 30.4379C37.229 31.4381 38.5855 32 40 32C41.4145 32 42.771 31.4381 43.7712 30.4379C44.7714 29.4377 45.3333 28.0812 45.3333 26.6667C45.3333 25.2522 45.8952 23.8956 46.8954 22.8954C47.8956 21.8952 49.2522 21.3333 50.6667 21.3333H53.504M40 54.6347V48C40 46.5855 40.5619 45.229 41.5621 44.2288C42.5623 43.2286 43.9188 42.6667 45.3333 42.6667H53.504M56 32C56 35.1517 55.3792 38.2726 54.1731 41.1844C52.967 44.0962 51.1992 46.742 48.9706 48.9706C46.742 51.1992 44.0962 52.967 41.1844 54.1731C38.2726 55.3792 35.1517 56 32 56C28.8483 56 25.7274 55.3792 22.8156 54.1731C19.9038 52.967 17.258 51.1992 15.0294 48.9706C12.8008 46.742 11.033 44.0962 9.82689 41.1844C8.62078 38.2726 8 35.1517 8 32C8 25.6348 10.5286 19.5303 15.0294 15.0294C19.5303 10.5286 25.6348 8 32 8C38.3652 8 44.4697 10.5286 48.9706 15.0294C53.4714 19.5303 56 25.6348 56 32Z" stroke="#374151" stroke-width="2" stroke-linecap="round" stroke-linejoin="round"/>
</g>
</svg>
