<svg width="24" height="25" viewBox="0 0 24 25" fill="none" xmlns="http://www.w3.org/2000/svg">
<g id="search">
<path id="Vector" d="M21 21.5L15 15.5M17 10.5C17 11.4193 16.8189 12.3295 16.4672 13.1788C16.1154 14.0281 15.5998 14.7997 14.9497 15.4497C14.2997 16.0998 13.5281 16.6154 12.6788 16.9672C11.8295 17.3189 10.9193 17.5 10 17.5C9.08075 17.5 8.1705 17.3189 7.32122 16.9672C6.47194 16.6154 5.70026 16.0998 5.05025 15.4497C4.40024 14.7997 3.88463 14.0281 3.53284 13.1788C3.18106 12.3295 3 11.4193 3 10.5C3 8.64348 3.7375 6.86301 5.05025 5.55025C6.36301 4.2375 8.14348 3.5 10 3.5C11.8565 3.5 13.637 4.2375 14.9497 5.55025C16.2625 6.86301 17 8.64348 17 10.5Z" stroke="#6B7280" stroke-width="2" stroke-linecap="round" stroke-linejoin="round"/>
</g>
</svg>
