<svg width="150" height="43" viewBox="0 0 150 43" fill="none" xmlns="http://www.w3.org/2000/svg">
<g id="coco_logo">
<g id="Group">
<g id="Group_2">
<g id="Group_3">
<path id="Vector" d="M51.0651 23.4466C51.6693 23.4466 52.2552 23.3581 52.8255 23.1758C53.401 22.9883 53.8255 22.8086 54.0964 22.6341L54.4922 22.3633L56.1901 25.7487C56.1328 25.7904 56.0547 25.8477 55.9505 25.9154C55.8516 25.9857 55.6224 26.1185 55.263 26.3112C54.9089 26.4987 54.526 26.6654 54.1172 26.8112C53.7057 26.9518 53.1693 27.0742 52.5026 27.1862C51.8411 27.2956 51.1589 27.3529 50.4505 27.3529C48.8255 27.3529 47.2865 26.9571 45.8359 26.1654C44.3828 25.3685 43.2135 24.2695 42.3255 22.8737C41.4349 21.4779 40.9922 19.9675 40.9922 18.3425C40.9922 17.1133 41.2526 15.9362 41.7734 14.8112C42.2943 13.681 42.987 12.7123 43.8568 11.905C44.724 11.1003 45.7344 10.457 46.888 9.97788C48.0469 9.49872 49.2344 9.25913 50.4505 9.25913C51.5807 9.25913 52.6224 9.39455 53.5755 9.66538C54.526 9.93101 55.2005 10.1966 55.5964 10.4675L56.1901 10.8737L54.4922 14.2591C54.3932 14.1706 54.2448 14.0664 54.0443 13.9466C53.849 13.8294 53.4531 13.6732 52.8568 13.4779C52.2656 13.2774 51.6693 13.1758 51.0651 13.1758C50.1068 13.1758 49.2448 13.332 48.4818 13.6445C47.7161 13.9518 47.112 14.3607 46.6693 14.8737C46.224 15.3815 45.8828 15.9258 45.6484 16.5091C45.4193 17.0925 45.3047 17.6914 45.3047 18.3008C45.3047 19.6289 45.7995 20.819 46.7943 21.8737C47.7943 22.9232 49.2161 23.4466 51.0651 23.4466Z" fill="#030712"/>
</g>
</g>
</g>
<g id="Group_4">
<g id="Group_5">
<g id="Group_6">
<path id="Vector_2" d="M56.9277 18.3008C56.9277 15.7748 57.7871 13.6341 59.5111 11.8841C61.2324 10.1341 63.3053 9.25913 65.7298 9.25913C68.1725 9.25913 70.2454 10.1315 71.9486 11.8737C73.6569 13.6185 74.5111 15.7591 74.5111 18.3008C74.5111 20.8581 73.6699 23.0065 71.9902 24.7487C70.3158 26.4857 68.2298 27.3529 65.7298 27.3529C63.1725 27.3529 61.0658 26.4935 59.4069 24.7695C57.7533 23.0404 56.9277 20.8841 56.9277 18.3008ZM61.2194 18.3008C61.2194 19.2175 61.36 20.056 61.6465 20.8112C61.9303 21.5612 62.4225 22.2018 63.1257 22.7279C63.834 23.2487 64.7012 23.5091 65.7298 23.5091C67.209 23.5091 68.3262 23.0039 69.084 21.9883C69.8392 20.9675 70.2194 19.7383 70.2194 18.3008C70.2194 16.8789 69.834 15.655 69.0632 14.6341C68.2923 13.6081 67.1803 13.0925 65.7298 13.0925C64.2923 13.0925 63.1803 13.6081 62.3965 14.6341C61.61 15.655 61.2194 16.8789 61.2194 18.3008Z" fill="#030712"/>
</g>
</g>
</g>
<g id="Group_7">
<g id="Group_8">
<g id="Group_9">
<path id="Vector_3" d="M85.5612 23.4466C86.1654 23.4466 86.7513 23.3581 87.3216 23.1758C87.8971 22.9883 88.3216 22.8086 88.5924 22.6341L88.9883 22.3633L90.6862 25.7487C90.6289 25.7904 90.5508 25.8477 90.4466 25.9154C90.3477 25.9857 90.1185 26.1185 89.7591 26.3112C89.4049 26.4987 89.0221 26.6654 88.6133 26.8112C88.2018 26.9518 87.6654 27.0742 86.9987 27.1862C86.3372 27.2956 85.6549 27.3529 84.9466 27.3529C83.3216 27.3529 81.7826 26.9571 80.332 26.1654C78.8789 25.3685 77.7096 24.2695 76.8216 22.8737C75.931 21.4779 75.4883 19.9675 75.4883 18.3425C75.4883 17.1133 75.7487 15.9362 76.2695 14.8112C76.7904 13.681 77.4831 12.7123 78.3529 11.905C79.2201 11.1003 80.2305 10.457 81.3841 9.97788C82.543 9.49872 83.7305 9.25913 84.9466 9.25913C86.0768 9.25913 87.1185 9.39455 88.0716 9.66538C89.0221 9.93101 89.6966 10.1966 90.0924 10.4675L90.6862 10.8737L88.9883 14.2591C88.8893 14.1706 88.7409 14.0664 88.5404 13.9466C88.3451 13.8294 87.9492 13.6732 87.3529 13.4779C86.7617 13.2774 86.1654 13.1758 85.5612 13.1758C84.6029 13.1758 83.7409 13.332 82.9779 13.6445C82.2122 13.9518 81.6081 14.3607 81.1654 14.8737C80.7201 15.3815 80.3789 15.9258 80.1445 16.5091C79.9154 17.0925 79.8008 17.6914 79.8008 18.3008C79.8008 19.6289 80.2956 20.819 81.2904 21.8737C82.2904 22.9232 83.7122 23.4466 85.5612 23.4466Z" fill="#030712"/>
</g>
</g>
</g>
<g id="Group_10">
<g id="Group_11">
<g id="Group_12">
<path id="Vector_4" d="M91.4258 18.3008C91.4258 15.7748 92.2852 13.6341 94.0091 11.8841C95.7305 10.1341 97.8034 9.25913 100.228 9.25913C102.671 9.25913 104.743 10.1315 106.447 11.8737C108.155 13.6185 109.009 15.7591 109.009 18.3008C109.009 20.8581 108.168 23.0065 106.488 24.7487C104.814 26.4857 102.728 27.3529 100.228 27.3529C97.6706 27.3529 95.5638 26.4935 93.9049 24.7695C92.2513 23.0404 91.4258 20.8841 91.4258 18.3008ZM95.7174 18.3008C95.7174 19.2175 95.8581 20.056 96.1445 20.8112C96.4284 21.5612 96.9206 22.2018 97.6237 22.7279C98.332 23.2487 99.1992 23.5091 100.228 23.5091C101.707 23.5091 102.824 23.0039 103.582 21.9883C104.337 20.9675 104.717 19.7383 104.717 18.3008C104.717 16.8789 104.332 15.655 103.561 14.6341C102.79 13.6081 101.678 13.0925 100.228 13.0925C98.7904 13.0925 97.6784 13.6081 96.8945 14.6341C96.1081 15.655 95.7174 16.8789 95.7174 18.3008Z" fill="#030712"/>
</g>
</g>
</g>
<g id="Group_13">
<g id="Group_14">
<g id="Group_15">
<path id="Vector_5" d="M65.9316 34.5074C65.9525 34.5283 65.9629 34.5491 65.9629 34.5699C65.9629 34.5908 65.9525 34.622 65.9316 34.6637C65.9108 34.7001 65.8796 34.747 65.8379 34.8095C65.7962 34.872 65.7181 34.9606 65.6087 35.0699C65.5046 35.1741 65.39 35.2652 65.265 35.3408C65.14 35.4189 64.9733 35.4866 64.765 35.5491C64.5566 35.6038 64.3327 35.6324 64.0983 35.6324C63.515 35.6324 63.028 35.4319 62.64 35.0283C62.2493 34.6194 62.0566 34.0882 62.0566 33.4345C62.0566 32.7757 62.2493 32.2522 62.64 31.8616C63.0358 31.4736 63.5098 31.2783 64.0671 31.2783C64.6764 31.2783 65.1217 31.4918 65.4004 31.9137V31.3824C65.3926 31.3356 65.416 31.3095 65.4733 31.3095H65.8066C65.8535 31.3095 65.8796 31.3356 65.8796 31.3824V32.6845C65.8796 32.734 65.8535 32.7574 65.8066 32.7574H65.4316C65.3822 32.7574 65.3587 32.734 65.3587 32.6845V32.6324C65.3587 32.4449 65.2337 32.2548 64.9837 32.0595C64.7337 31.8668 64.4238 31.7679 64.0566 31.7679C63.6868 31.7679 63.3535 31.9137 63.0566 32.2054C62.765 32.497 62.6191 32.9111 62.6191 33.4449C62.6191 33.9814 62.765 34.3981 63.0566 34.6949C63.3535 34.9866 63.7051 35.1324 64.1087 35.1324C64.5462 35.1324 64.89 35.0361 65.14 34.8408C65.3327 34.6897 65.4759 34.5361 65.5671 34.3824C65.5931 34.3199 65.6322 34.3069 65.6816 34.3408L65.9316 34.5074Z" fill="#030712"/>
</g>
</g>
</g>
<g id="Group_16">
<g id="Group_17">
<g id="Group_18">
<path id="Vector_6" d="M71.1237 35.5908H69.7799C69.7305 35.5908 69.707 35.5673 69.707 35.5179V35.2158C69.707 35.1689 69.7305 35.1429 69.7799 35.1429H70.1966L69.8112 34.1116H68.1445L67.7591 35.1429H68.1758C68.2227 35.1429 68.2487 35.1689 68.2487 35.2158V35.5179C68.2487 35.5673 68.2227 35.5908 68.1758 35.5908H66.832C66.7904 35.5908 66.7695 35.5673 66.7695 35.5179V35.2158C66.7695 35.1689 66.7904 35.1429 66.832 35.1429H67.2383L68.5195 31.7574H68.1966C68.1393 31.7574 68.1133 31.734 68.1133 31.6845V31.3824C68.1133 31.3356 68.1393 31.3095 68.1966 31.3095H69.0091C69.0977 31.3095 69.168 31.3304 69.2174 31.372C69.2721 31.4137 69.3164 31.4814 69.3529 31.5699L70.7174 35.1429H71.1237C71.1706 35.1429 71.1966 35.1689 71.1966 35.2158V35.5179C71.1966 35.5673 71.1706 35.5908 71.1237 35.5908ZM69.6445 33.7054L68.9883 31.9345H68.9674L68.3008 33.7054H69.6445Z" fill="#030712"/>
</g>
</g>
</g>
<g id="Group_19">
<g id="Group_20">
<g id="Group_21">
<path id="Vector_7" d="M72.5534 35.5908H72.2201C72.1628 35.5908 72.1367 35.5673 72.1367 35.5179V34.122C72.1367 34.0751 72.1628 34.0491 72.2201 34.0491H72.5951C72.6419 34.0491 72.668 34.0751 72.668 34.122V34.247C72.668 34.3251 72.7122 34.4241 72.8034 34.5491C72.8919 34.6741 72.9831 34.7783 73.0742 34.8616C73.1628 34.9397 73.2852 35.0074 73.4388 35.0699C73.5898 35.1272 73.7565 35.1533 73.9388 35.1533C74.2435 35.1533 74.4831 35.0908 74.6576 34.9658C74.8294 34.8356 74.918 34.6533 74.918 34.4241C74.918 34.2991 74.8685 34.1923 74.7721 34.1012C74.6732 34.0048 74.5456 33.9293 74.3867 33.872C74.2331 33.8173 74.0638 33.7652 73.8763 33.7158C73.6888 33.6689 73.5013 33.6116 73.3138 33.5491C73.1263 33.4866 72.9518 33.4137 72.793 33.3304C72.6393 33.247 72.5143 33.1298 72.418 32.9762C72.319 32.8251 72.2721 32.6429 72.2721 32.4345C72.2721 32.1012 72.3971 31.8277 72.6471 31.6116C72.9023 31.3902 73.2435 31.2783 73.668 31.2783C74.2018 31.2783 74.5951 31.4345 74.8451 31.747L74.8346 31.3824C74.8346 31.3356 74.8581 31.3095 74.9076 31.3095H75.2409C75.2878 31.3095 75.3138 31.3356 75.3138 31.3824V32.6741C75.3138 32.7236 75.2878 32.747 75.2409 32.747H74.8659C74.8242 32.747 74.8034 32.7236 74.8034 32.6741V32.5074C74.8034 32.3486 74.7096 32.1845 74.5221 32.0179C74.3398 31.8512 74.0742 31.7679 73.7201 31.7679C73.4544 31.7679 73.2435 31.8304 73.0846 31.9554C72.9232 32.0804 72.8451 32.2418 72.8451 32.4345C72.8451 32.5751 72.8919 32.6923 72.9909 32.7887C73.0951 32.8876 73.2227 32.9658 73.3763 33.0283C73.5352 33.0908 73.7096 33.1481 73.8971 33.1949C74.0898 33.2444 74.2826 33.2991 74.4701 33.3616C74.6628 33.4189 74.8398 33.4866 75.0013 33.5699C75.1602 33.6533 75.2878 33.7679 75.3867 33.9137C75.4831 34.0595 75.5326 34.2314 75.5326 34.4241C75.5326 34.7783 75.4076 35.0699 75.1576 35.2991C74.9076 35.5231 74.5352 35.6324 74.043 35.6324C73.6732 35.6324 73.3711 35.5595 73.1367 35.4137C72.8997 35.2679 72.7253 35.109 72.6159 34.9345L72.6263 35.5179C72.6263 35.5673 72.6003 35.5908 72.5534 35.5908Z" fill="#030712"/>
</g>
</g>
</g>
<g id="Group_22">
<g id="Group_23">
<g id="Group_24">
<path id="Vector_8" d="M77.9108 35.5908H76.4837C76.4264 35.5908 76.4004 35.5673 76.4004 35.5179V35.2158C76.4004 35.1689 76.4264 35.1429 76.4837 35.1429H76.9316V31.7574H76.4837C76.4264 31.7574 76.4004 31.734 76.4004 31.6845V31.3824C76.4004 31.3356 76.4264 31.3095 76.4837 31.3095H77.9108C77.9655 31.3095 77.9941 31.3356 77.9941 31.3824V31.6845C77.9941 31.734 77.9655 31.7574 77.9108 31.7574H77.4525V35.1429H77.9108C77.9655 35.1429 77.9941 35.1689 77.9941 35.2158V35.5179C77.9941 35.5673 77.9655 35.5908 77.9108 35.5908Z" fill="#030712"/>
</g>
</g>
</g>
<g id="Group_25">
<g id="Group_26">
<g id="Group_27">
<path id="Vector_9" d="M82.5618 35.5908H82.2389C82.1608 35.5908 82.1035 35.5777 82.0618 35.5491C82.0202 35.5152 81.9785 35.4658 81.9368 35.4033L80.2181 32.7158L79.916 32.2158H79.9056V35.1429H80.3639C80.4186 35.1429 80.4473 35.1689 80.4473 35.2158V35.5179C80.4473 35.5673 80.4186 35.5908 80.3639 35.5908H78.9368C78.8796 35.5908 78.8535 35.5673 78.8535 35.5179V35.2158C78.8535 35.1689 78.8796 35.1429 78.9368 35.1429H79.3848V31.7574H78.9368C78.8796 31.7574 78.8535 31.734 78.8535 31.6845V31.3824C78.8535 31.3356 78.8796 31.3095 78.9368 31.3095H79.7702C79.8874 31.3095 79.9889 31.3798 80.0723 31.5179L81.7702 34.1741L82.1139 34.747H82.1243V31.7574H81.666C81.6165 31.7574 81.5931 31.734 81.5931 31.6845V31.3824C81.5931 31.3356 81.6165 31.3095 81.666 31.3095H83.1035C83.1504 31.3095 83.1764 31.3356 83.1764 31.3824V31.6845C83.1764 31.734 83.1504 31.7574 83.1035 31.7574H82.6452V35.5179C82.6452 35.5673 82.6165 35.5908 82.5618 35.5908Z" fill="#030712"/>
</g>
</g>
</g>
<g id="Group_28">
<g id="Group_29">
<g id="Group_30">
<path id="Vector_10" d="M87.8665 35.5908H87.5436C87.4941 35.5908 87.4707 35.5673 87.4707 35.5179L87.4811 35.1116C87.127 35.4606 86.6582 35.6324 86.0749 35.6324C85.4967 35.6324 85.0124 35.4319 84.6165 35.0283C84.2259 34.6194 84.0332 34.0856 84.0332 33.4241C84.0332 32.9866 84.1296 32.6012 84.3249 32.2679C84.5254 31.9345 84.778 31.6897 85.0853 31.5283C85.39 31.3616 85.7207 31.2783 86.0749 31.2783C86.679 31.2783 87.1113 31.4658 87.377 31.8408V31.3824C87.3691 31.3356 87.3926 31.3095 87.4499 31.3095H87.7832C87.8301 31.3095 87.8561 31.3356 87.8561 31.3824V32.6116C87.8561 32.6611 87.8301 32.6845 87.7832 32.6845H87.4082C87.3587 32.6845 87.3353 32.6611 87.3353 32.6116V32.5387C87.3353 32.3668 87.2129 32.1949 86.9707 32.0283C86.7337 31.8564 86.429 31.7679 86.054 31.7679C85.679 31.7679 85.3405 31.9215 85.0436 32.2262C84.7441 32.5335 84.5957 32.9449 84.5957 33.4658C84.5957 33.9814 84.7441 34.3876 85.0436 34.6845C85.3483 34.984 85.6842 35.1324 86.054 35.1324C86.429 35.1324 86.7233 35.0751 86.9395 34.9554C87.153 34.8382 87.3171 34.6949 87.429 34.5283V34.0699H86.3249C86.2754 34.0699 86.252 34.0439 86.252 33.9866V33.7158C86.252 33.6689 86.2754 33.6429 86.3249 33.6429H87.8665C87.9134 33.6429 87.9395 33.6689 87.9395 33.7158V35.5179C87.9395 35.5673 87.9134 35.5908 87.8665 35.5908Z" fill="#030712"/>
</g>
</g>
</g>
</g>
</svg>
