<svg width="128" height="128" viewBox="0 0 128 128" fill="none" xmlns="http://www.w3.org/2000/svg">
<g id="arrow-narrow-right">
<path id="Vector" fill-rule="evenodd" clip-rule="evenodd" d="M78.675 33.8752C79.8752 32.6754 81.5028 32.0014 83.1998 32.0014C84.8969 32.0014 86.5244 32.6754 87.7246 33.8752L113.325 59.4752C114.524 60.6754 115.198 62.303 115.198 64C115.198 65.6971 114.524 67.3246 113.325 68.5248L87.7246 94.1248C86.5175 95.2906 84.9009 95.9357 83.2228 95.9211C81.5448 95.9065 79.9396 95.2335 78.753 94.0469C77.5664 92.8602 76.8933 91.255 76.8787 89.577C76.8641 87.8989 77.5092 86.2823 78.675 85.0752L93.3502 70.4H19.1998C17.5024 70.4 15.8746 69.7257 14.6743 68.5255C13.4741 67.3253 12.7998 65.6974 12.7998 64C12.7998 62.3026 13.4741 60.6748 14.6743 59.4745C15.8746 58.2743 17.5024 57.6 19.1998 57.6H93.3502L78.675 42.9248C77.4752 41.7246 76.8012 40.0971 76.8012 38.4C76.8012 36.703 77.4752 35.0754 78.675 33.8752Z" fill="white"/>
</g>
</svg>
