<svg width="35" height="34" viewBox="0 0 35 34" fill="none" xmlns="http://www.w3.org/2000/svg">
<g id="arrow-narrow-right">
<path id="Vector" fill-rule="evenodd" clip-rule="evenodd" d="M23.8237 10.5989C24.0628 10.3436 24.3871 10.2002 24.7251 10.2002C25.0632 10.2002 25.3875 10.3436 25.6266 10.5989L30.7266 16.0457C30.9657 16.301 31.1 16.6473 31.1 17.0084C31.1 17.3695 30.9657 17.7158 30.7266 17.9711L25.6266 23.4179C25.3861 23.666 25.064 23.8032 24.7297 23.8001C24.3954 23.797 24.0756 23.6538 23.8392 23.4014C23.6028 23.1489 23.4687 22.8074 23.4658 22.4503C23.4629 22.0933 23.5914 21.7493 23.8237 21.4925L26.7473 18.3701H11.975C11.6368 18.3701 11.3125 18.2267 11.0734 17.9713C10.8343 17.7159 10.7 17.3696 10.7 17.0084C10.7 16.6473 10.8343 16.3009 11.0734 16.0455C11.3125 15.7902 11.6368 15.6467 11.975 15.6467H26.7473L23.8237 12.5243C23.5847 12.269 23.4504 11.9227 23.4504 11.5616C23.4504 11.2005 23.5847 10.8542 23.8237 10.5989Z" fill="#111827"/>
<path d="M1.5 34V0H-0.5V34H1.5Z" fill="#111827" mask="url(#path-1-inside-1_80_782)"/>
</g>
</svg>
