<svg width="22" height="22" viewBox="0 0 22 22" fill="none" xmlns="http://www.w3.org/2000/svg">
<g id="user">
<g id="Vector">
<path d="M13.5924 9.00939C14.28 8.32176 14.6663 7.38913 14.6663 6.41667C14.6663 5.44421 14.28 4.51157 13.5924 3.82394C12.9048 3.13631 11.9721 2.75 10.9997 2.75C10.0272 2.75 9.09458 3.13631 8.40695 3.82394C7.71932 4.51157 7.33301 5.44421 7.33301 6.41667C7.33301 7.38913 7.71932 8.32176 8.40695 9.00939C9.09458 9.69703 10.0272 10.0833 10.9997 10.0833C11.9721 10.0833 12.9048 9.69703 13.5924 9.00939Z" stroke="#374151" stroke-width="2" stroke-linecap="round" stroke-linejoin="round"/>
<path d="M6.46241 14.7127C7.66576 13.5094 9.29787 12.8333 10.9997 12.8333C12.7015 12.8333 14.3336 13.5094 15.5369 14.7127C16.7403 15.9161 17.4163 17.5482 17.4163 19.25H4.58301C4.58301 17.5482 5.25905 15.9161 6.46241 14.7127Z" stroke="#374151" stroke-width="2" stroke-linecap="round" stroke-linejoin="round"/>
</g>
</g>
</svg>
